PathFileType	4	(X/Y/Z)	C:\Users\WrightLab\Desktop\Jo\P2_Trial31.trc
DataRate	CameraRate	NumFrames	NumMarkers	Units	OrigDataRate	OrigDataStartFrame	OrigNumFrames
100.00	100.00	       102	19	mm	100.00	711	       812
Frame#	Time	Headset_Front			Headset_Back			Headset_Left			Headset_Right			Left_Shoulder			Right_Shoulder			Sternum			C7			Left Elbow			Right Elbow			Left Wrist			Right Wrist			Left ASIS			Right ASIS			S2			Left Knee			Right Knee			Left Ankle			Right Ankle			
		X1	Y1	Z1	X2	Y2	Z2	X3	Y3	Z3	X4	Y4	Z4	X5	Y5	Z5	X6	Y6	Z6	X7	Y7	Z7	X8	Y8	Z8	X9	Y9	Z9	X10	Y10	Z10	X11	Y11	Z11	X12	Y12	Z12	X13	Y13	Z13	X14	Y14	Z14	X15	Y15	Z15	X16	Y16	Z16	X17	Y17	Z17	X18	Y18	Z18	X19	Y19	Z19	

711	7.100																																																	-2.61417	610.06964	2473.81592							
712	7.110																																																	-1.01172	609.51459	2472.80786							
713	7.120																																																	-0.23625	609.57031	2472.10010							
714	7.130																																																	1.90324	609.97748	2472.68164							
715	7.140																																																	3.09483	609.18170	2472.07153							
716	7.150																																																	4.56665	608.89655	2471.98096							
717	7.160																																																	5.01240	608.69641	2471.77246							
718	7.170																																																	5.25419	608.46045	2471.78711							
719	7.180																																																	5.28789	607.69257	2470.67676							
720	7.190																																																	5.43506	607.61310	2470.52539							
721	7.200																																																	5.37737	607.37122	2470.62476							
722	7.210																																																	5.15059	607.34015	2470.60034							
723	7.220																																																	4.83711	606.97388	2469.55688							
724	7.230																																																	4.19442	607.01666	2468.52441							
725	7.240																																																	3.88234	606.83270	2468.75366							
726	7.250																																																	2.91977	606.65546	2468.23853							
727	7.260																																																	2.05166	606.99554	2468.35645							
728	7.270																																																	1.17613	606.65045	2469.49658							
729	7.280																																																	0.04302	607.50317	2470.16211							
730	7.290																																																	-0.93983	607.15302	2471.48584							
731	7.300																																																	-2.05410	606.73492	2473.17285							
732	7.310																																																	-3.19489	606.49323	2474.44775							
733	7.320																																																	-4.50404	606.32593	2475.81348							
734	7.330																																																	-5.47314	606.25482	2476.60889							
735	7.340																																																	-7.38208	606.92804	2478.55688							
736	7.350																																																	-9.07079	606.71344	2479.06860							
737	7.360																																																	-10.42876	606.77863	2478.81274							
738	7.370																																																	-11.56315	607.33929	2480.28687							
739	7.380																																																	-12.50665	607.77832	2481.63989							
740	7.390																																																	-13.04269	607.70319	2482.18848							
741	7.400																																																	-13.57386	607.74915	2482.48071							
742	7.410																																																	-14.78102	606.46924	2482.98975							
743	7.420																																																	-15.51660	606.38275	2483.34009							
744	7.430																																																	-16.12704	606.09772	2483.91968							
745	7.440																																																	-16.98779	606.43970	2484.31665							
746	7.450																																																	-18.50386	605.67725	2483.29004							
747	7.460																																																	-19.22753	605.88678	2483.16748							
748	7.470																																																	-20.58274	606.21722	2482.92358							
749	7.480																																																	-22.01997	606.23376	2481.99512							
750	7.490																																																	-23.44078	605.58124	2480.58813							
751	7.500																																																	-25.14018	605.33209	2479.16650							
752	7.510																																																	-25.66566	605.45026	2478.95313							
753	7.520																																																	-26.87345	604.96307	2477.83496							
754	7.530																																																	-29.19517	604.22217	2475.35962							
755	7.540																																																	-29.91488	604.42639	2474.88696							
756	7.550																																																	-31.91092	603.64972	2472.48291							
757	7.560																																																	-34.22868	602.74359	2470.37817							
758	7.570																																																	-35.75456	603.55005	2470.60229							
759	7.580																																																	-37.32819	603.48456	2468.97314							
760	7.590																																																	-39.35959	602.64233	2467.81323							
761	7.600																																																	-39.96994	602.77557	2467.75757							
762	7.610																																																	-41.92809	603.48279	2467.52100							
763	7.620																																																	-43.17357	601.60321	2464.42261							
764	7.630																																																	-44.50863	602.55841	2465.65112							
765	7.640																																																	-45.29924	602.66785	2465.80762							
766	7.650																																																	-46.72887	602.22101	2464.62378							
767	7.660																																																	-48.33641	601.17963	2462.67163							
768	7.670																																																	-48.93266	600.83350	2463.18311							
769	7.680																																																	-49.94992	602.25806	2464.06543							
770	7.690																																																	-50.21676	602.59344	2463.64844							
771	7.700																																																	-50.39676	602.05975	2462.82520							
772	7.710																																																	-51.17103	601.35638	2461.11182							
773	7.720																																																	-51.16245	601.48297	2460.72461							
774	7.730																																																	-51.43417	601.60590	2460.90234							
775	7.740																																																	-51.43417	601.60590	2460.90234							
776	7.750																																																	-51.29671	601.73834	2460.40649							
777	7.760																																																	-51.16048	601.82367	2460.17700							
778	7.770																																																	-50.92908	601.81921	2459.97754							
779	7.780																																																	-50.67239	601.81787	2459.80176							
780	7.790																																																	-50.50325	601.89709	2459.64160							
781	7.800																																																	-50.41861	601.94629	2459.67920							
782	7.810																																																	-50.18459	601.99750	2459.58276							
783	7.820																																																	-49.45609	602.05426	2459.00293							
784	7.830																																																	-49.18727	602.17517	2458.73389							
785	7.840																																																	-47.77232	601.81531	2458.77637							
786	7.850																																																	-47.59856	602.07477	2458.30103							
787	7.860																																																	-47.36893	602.02832	2458.25806							
788	7.870																																																	-47.32825	602.05322	2458.27295							
789	7.880																																																	-46.90095	602.09796	2457.90039							
790	7.890																																																	-46.54765	602.13739	2457.66504							
791	7.900																																																	-45.98966	602.96552	2458.35400							
792	7.910																																																	-45.40806	601.70520	2456.92651							
793	7.920																																																	-45.34572	601.64941	2457.12109							
794	7.930																																																	-45.26654	601.68262	2457.18945							
795	7.940																																																	-45.17363	601.72491	2457.26123							
796	7.950																																																	-45.47256	601.33508	2457.07300							
797	7.960																																																	-45.04779	600.49750	2456.89111							
798	7.970																																																	-44.83329	601.26013	2457.96143							
799	7.980																																																	-44.58724	601.17218	2457.88916							
800	7.990																																																	-45.12837	602.19672	2458.69531							
801	8.000																																																	-43.91150	601.23303	2457.98975							
802	8.010																																																	-43.17709	601.52277	2459.42554							
803	8.020																																																	-43.36047	601.45398	2459.65552							
804	8.030																																																	-43.38184	601.33331	2459.78809							
805	8.040																																																	-43.54966	601.10925	2460.13257							
806	8.050																																																	-43.93925	600.98370	2460.51538							
807	8.060																																																	-44.08543	600.90295	2460.65991							
808	8.070																																																	-44.54564	600.81824	2461.15430							
809	8.080																																																	-44.30196	601.49506	2462.17578							
810	8.090																																																	-44.68642	600.83661	2461.15210							
811	8.100																																																	-45.32683	601.28650	2461.07446							
812	8.110																																																	-46.26432	601.41718	2460.76270							
